<svg xmlns="http://www.w3.org/2000/svg" viewBox="0 0 80 80" width="40" height="40">
  <defs>
    <path id="c" d="M40 80C62.1 80 80 62.1 80 40S62.1 0 40 0 0 17.9 0 40s17.9 40 40 40z"/>
    
    <radialGradient id="g1" cx="0" cy="0" r="1" gradientUnits="userSpaceOnUse" gradientTransform="translate(15.5 70.9) rotate(-49.4) scale(61.9)"><stop stop-color="#6420FF"/><stop offset="1" stop-color="#6420FF" stop-opacity="0"/></radialGradient>
    <radialGradient id="g2" cx="0" cy="0" r="1" gradientUnits="userSpaceOnUse" gradientTransform="translate(21.2 9.1) rotate(54.7) scale(69.8)"><stop stop-color="#00C4CC"/><stop offset="1" stop-color="#00C4CC" stop-opacity="0"/></radialGradient>
    <radialGradient id="g3" cx="0" cy="0" r="1" gradientUnits="userSpaceOnUse" gradientTransform="translate(15.5 70.9) rotate(-45.2) scale(61.1 28.1)"><stop stop-color="#6420FF"/><stop offset="1" stop-color="#6420FF" stop-opacity="0"/></radialGradient>
    <radialGradient id="g4" cx="0" cy="0" r="1" gradientUnits="userSpaceOnUse" gradientTransform="translate(32.7 10.8) rotate(66.5) scale(63 105.5)"><stop stop-color="#00C4CC" stop-opacity=".7"/><stop offset="0" stop-color="#00C4CC"/><stop offset="1" stop-color="#00C4CC" stop-opacity="0"/></radialGradient>
  </defs>

  <use href="#c" fill="#7D2AE7"/>
  <use href="#c" fill="url(#g1)"/>
  <use href="#c" fill="url(#g2)"/>
  <use href="#c" fill="url(#g3)"/>
  <use href="#c" fill="url(#g4)"/>

  <path fill="#fff" d="M57.3 48.2c-.3 0-.6.3-.9.9-3.4 6.9-9.3 11.8-16.1 11.8-7.9 0-12.8-7.1-12.8-17 0-16.7 9.3-26.3 17.4-26.3 3.8 0 6.1 2.4 6.1 6.2 0 4.5-2.6 6.9-2.6 8.5 0 .7.5 1.1 1.4 1.1 3.5 0 7.7-4 7.7-9.8C57.5 18.1 52.6 14 44.5 14 31 14 19 26.5 19 43.8c0 13.4 7.6 22.2 19.4 22.2 12.5 0 19.8-12.5 19.8-16.5 0-.9-.5-1.3-.9-1.3z"/>
</svg>