<svg
  xmlns="http://www.w3.org/2000/svg"
  viewBox="0 -183.5 512 512"
  width="200"
  height="200"
>
  <path
    fill="#83CD29"
    d="M471.05 51.6c-1.2 0-2.5.3-3.5.9l-33.9 19.6c-2.2 1.3-3.5 3.7-3.5 6.2v39c0 2.5 1.3 4.9 3.5 6.2l8.9 5.1c4.3 2.1 5.9 2.1 7.8 2.1 6.4 0 10-3.9 10-10.6V81.5c0-.5-.5-1-1-1h-4.2c-.5 0-1 .4-1 1v38.6c0 3-3.1 6-8.1 3.5l-9.2-5.4v-40l33.9-19.6h1l33.8 19.5v40l-33.9 19.5h-1l-8.7-5.2c-.9 0-2.4 1.4-5.1 2.3-.6.2-1.4.5.3 1.4l11.4 6.7a7 7 0 0 0 3.5 1 7 7 0 0 0 3.5-1l33.9-19.5c2.2-1.3 3.5-3.7 3.5-6.2v-39c0-2.6-1.3-5-3.5-6.2l-33.9-19.6c-1-.6-2.3-.9-3.5-.9zM480.1 79.5c-9.7 0-15.4 4.1-15.4 10.9 0 7.4 5.7 9.4 15 10.4 11 1 11.9 2.7 11.9 4.9 0 3.8-3 5.4-10.1 5.4-9 0-10.9-2.2-11.6-6.7 0-.5-.4-.9-.9-.9h-4.4c-.5 0-1 .5-1 1 0 5.7 3.1 12.4 17.9 12.4 10.7 0 16.9-4.2 16.9-11.6 0-7.3-5-9.3-15.4-10.6-10.5-1.4-11.5-2.1-11.5-4.5 0-2 .9-4.8 8.6-4.8 7 0 9.5 1.5 10.6 6.2 0 .4.5.8.9.8h4.4c.3 0 .5-.2.7-.4.2-.2.3-.4.3-.7-.7-8-6.1-11.9-16.9-11.9zM148.7 52.4c-.7 0-1.5.2-2.2.6l-35.9 20.6c-1.3.8-2.2 2.3-2.2 3.8v41.5c0 1.5.8 3 2.2 3.7l35.9 20.7a4.3 4.3 0 0 0 4.3 0l35.9-20.7a4.3 4.3 0 0 0 2.2-3.8V77.4c0-1.5-.8-3-2.2-3.8l-35.9-20.6a4.3 4.3 0 0 0-2.2-.6zM363.4 89.4h-.4l-6.9 4a.8.8 0 0 0-.4.7v8c0 .3.2.6.4.7l6.9 4 .8-.1 6.9-4a.8.8 0 0 0 .4-.7v-8a.8.8 0 0 0-.4-.7l-6.9-4h-.4z"
  />
  <path
    fill="#fff"
    d="M271.8.4a2.2 2.2 0 0 0-1.1.3 2.2 2.2 0 0 0-1.1 1.9v55c0 .5-.3 1-.7 1.3a1.5 1.5 0 0 1-1.5 0l-9-5.2a4.3 4.3 0 0 0-4.3 0L218.2 74.4c-1.3.8-2.2 2.3-2.2 3.8v41.5c0 1.5.8 3 2.2 3.7l35.9 20.7a4.3 4.3 0 0 0 4.3 0l35.9-20.7a4.3 4.3 0 0 0 2.2-3.7V16.4a4.4 4.4 0 0 0-2.2-3.8L272.9.6c-.3-.2-.7-.2-1.1-.2zM40.9 52.1c-.7 0-1.3.1-1.9.5L3 73.3a4.3 4.3 0 0 0-2.2 3.8L.9 132.7c0 .8.4 1.5 1.1 1.9a2.1 2.1 0 0 0 2.2 0l21.3-12.2c1.3-.8 2.2-2.2 2.2-3.8V92.6c0-1.5.8-3 2.2-3.7l9-5.3a4.3 4.3 0 0 1 2.2-.6c.7 0 1.5.2 2.2.6l9 5.2a4.3 4.3 0 0 1 2.2 3.8v26c0 1.5.9 3 2.2 3.7l21.3 12.2a2.1 2.1 0 0 0 2.2 0 2.2 2.2 0 0 0 1-1.9l.1-55.6a4.3 4.3 0 0 0-2.2-3.8L43.2 52.6c-.6-.3-1.2-.5-1.9-.5h-.4zm322.6.5c-.7 0-1.5.2-2.2.6l-35.9 20.7a4.3 4.3 0 0 0-2.2 3.8V119c0 1.6.9 3 2.2 3.8l35.6 20.3c1.3.7 2.9.8 4.2.1l21.6-12c.7-.4 1.1-1.1 1.2-1.9a2.1 2.1 0 0 0-1.1-1.9l-36.1-20.7c-.7-.4-1.2-1.2-1.2-2v-13c0-.7.5-1.4 1.2-1.8l11.2-6.5a2.2 2.2 0 0 1 2.2 0L375.5 90a2.2 2.2 0 0 1 1.1 1.9v10.2a2.2 2.2 0 0 0 1.1 1.9c.7.4 1.5.4 2.2 0l21.4-12.5a4.3 4.3 0 0 0 2.2-3.8v-10c0-1.5-.8-3-2.2-3.7l-35.7-20.7a4.3 4.3 0 0 0-2.2-.6zm-107.4 31c.2 0 .4 0 .6.1l12.3 7.1c.3.2.6.6.6.9v14.3c0 .4-.2.7-.6.9l-12.3 7.1a1.1 1.1 0 0 1-1.1 0l-12.3-7.1c-.3-.2-.6-.6-.6-.9V91.8c0-.4.2-.7.6-.9l12.3-7.1a.9.9 0 0 1 .5-.2z"
  />
</svg>